<svg width="17" height="21" viewBox="0 0 17 21" fill="none" xmlns="http://www.w3.org/2000/svg">
<path fill-rule="evenodd" clip-rule="evenodd" d="M8.5 19.9497L9.25225 20.691C9.15353 20.7889 9.03622 20.8667 8.90704 20.9197C8.77786 20.9727 8.63935 21 8.49947 21C8.35959 21 8.22108 20.9727 8.0919 20.9197C7.96272 20.8667 7.8454 20.7889 7.74669 20.691L7.74031 20.6837L7.72225 20.6658L7.65638 20.5997C7.28183 20.2184 6.91345 19.8312 6.55138 19.4384C5.6423 18.454 4.77182 17.4354 3.94187 16.385C2.99413 15.1775 2.02512 13.8126 1.28881 12.4644C0.568437 11.1424 0 9.71026 0 8.39988C0 3.634 3.8165 0 8.5 0C13.1835 0 17 3.634 17 8.39988C17 9.71026 16.4316 11.1424 15.7112 12.4633C14.9749 13.8136 14.0069 15.1775 13.0581 16.385C11.8972 17.8546 10.6573 19.2615 9.34363 20.5997L9.27775 20.6658L9.25969 20.6837L9.25331 20.69L8.5 19.9497ZM8.5 11.5498C9.34538 11.5498 10.1561 11.218 10.7539 10.6272C11.3517 10.0365 11.6875 9.2353 11.6875 8.39988C11.6875 7.56446 11.3517 6.76326 10.7539 6.17252C10.1561 5.58179 9.34538 5.24992 8.5 5.24992C7.65462 5.24992 6.84387 5.58179 6.2461 6.17252C5.64832 6.76326 5.3125 7.56446 5.3125 8.39988C5.3125 9.2353 5.64832 10.0365 6.2461 10.6272C6.84387 11.218 7.65462 11.5498 8.5 11.5498Z" fill="white"/>
</svg>
