<svg width="33" height="30" viewBox="0 0 33 30" fill="none" xmlns="http://www.w3.org/2000/svg">
<path d="M1.95541 26.6842L4.07262 27.5684V13.3105L0.233199 22.5632C-0.414605 24.1737 0.328 26.0211 1.95541 26.6842ZM32.7656 20.8421L24.9288 1.97368C24.6973 1.40139 24.303 0.909438 23.7948 0.55866C23.2865 0.207881 22.6865 0.0136566 22.0689 0C21.6581 0 21.2315 0.0631581 20.8207 0.236842L9.17605 5.05263C8.61402 5.29098 8.1322 5.68543 7.78773 6.18919C7.44327 6.69295 7.25062 7.28487 7.23264 7.89474C7.21684 8.28947 7.29584 8.74737 7.43804 9.1579L15.3381 28.0263C15.7963 29.2579 16.9655 29.9842 18.1979 30C18.6087 30 19.0195 29.9211 19.4145 29.7632L31.0434 24.9474C31.8164 24.631 32.432 24.0209 32.755 23.2511C33.0779 22.4812 33.0818 21.6147 32.7656 20.8421ZM10.4085 9.47368C9.98942 9.47368 9.58754 9.30733 9.29123 9.01122C8.99492 8.71511 8.82845 8.3135 8.82845 7.89474C8.82845 7.47597 8.99492 7.07436 9.29123 6.77825C9.58754 6.48214 9.98942 6.31579 10.4085 6.31579C11.2775 6.31579 11.9885 7.02632 11.9885 7.89474C11.9885 8.76316 11.2775 9.47368 10.4085 9.47368ZM7.24844 26.8421C7.24844 27.6796 7.58137 28.4829 8.17399 29.0751C8.76661 29.6673 9.57037 30 10.4085 30H12.6995L7.24844 16.8316V26.8421Z" fill="#DFB300"/>
</svg>
