<svg width="29" height="30" viewBox="0 0 29 30" fill="none" xmlns="http://www.w3.org/2000/svg">
<path d="M3.05263 30C2.21316 30 1.49477 29.7065 0.897473 29.1195C0.299158 28.5315 0 27.825 0 27V3C0 2.175 0.299158 1.4685 0.897473 0.8805C1.49477 0.2935 2.21316 0 3.05263 0H14.0039C14.411 0 14.7992 0.0750001 15.1685 0.225C15.5369 0.375 15.861 0.5875 16.1408 0.8625L23.5434 8.1375C23.8232 8.4125 24.0395 8.731 24.1921 9.093C24.3447 9.456 24.4211 9.8375 24.4211 10.2375V13.65L12.2105 25.6125V30H3.05263ZM16.0263 30C15.8228 30 15.6447 29.925 15.4921 29.775C15.3395 29.625 15.2632 29.45 15.2632 29.25V27.45C15.2632 27.25 15.3079 27.05 15.3975 26.85C15.486 26.65 15.5939 26.4875 15.7211 26.3625L23.1237 19.05L26.4053 22.2L18.9645 29.55C18.8373 29.7 18.6719 29.8125 18.4684 29.8875C18.2649 29.9625 18.0614 30 17.8579 30H16.0263ZM27.5118 21.15L24.2684 17.9625L25.3368 16.9125C25.6421 16.6125 26.011 16.4625 26.4434 16.4625C26.8759 16.4625 27.232 16.6125 27.5118 16.9125L28.5803 18C28.8601 18.3 29 18.656 29 19.068C29 19.481 28.8601 19.825 28.5803 20.1L27.5118 21.15ZM15.2632 10.5H21.3684L13.7368 3V9C13.7368 9.425 13.8834 9.781 14.1764 10.068C14.4685 10.356 14.8307 10.5 15.2632 10.5Z" fill="#DFB300"/>
</svg>
