<svg width="22" height="22" viewBox="0 0 22 22" fill="none" xmlns="http://www.w3.org/2000/svg">
<path fill-rule="evenodd" clip-rule="evenodd" d="M10.519 6.53853e-05C4.70491 6.53853e-05 0 4.70216 0 10.5191C0 12.7128 0.66899 14.7418 1.85731 16.4853C1.94683 16.6181 1.97104 16.7845 1.92298 16.9373L0.854642 20.5122L4.35555 19.304V19.3042C4.50707 19.2536 4.67344 19.2748 4.80754 19.3616C6.44728 20.4255 8.41044 21.038 10.5188 21.038C16.3357 21.038 21.0378 16.3359 21.0378 10.519C21.0378 4.70209 16.3357 0 10.5188 0L10.519 6.53853e-05ZM6.21284 4.58561L8.12754 7.74953L7.3303 8.5385L7.33048 8.53869C7.16355 8.7069 7.12999 8.9661 7.2483 9.17138C8.46484 11.278 9.90614 12.9168 11.9243 13.8063C12.1222 13.8943 12.3537 13.8519 12.5078 13.6995L13.3542 12.8532L16.4442 14.7844C16.1021 15.5544 15.656 16.0129 15.1458 16.28C14.5548 16.5894 13.833 16.6479 13.0092 16.4772C11.3615 16.1356 9.37141 14.8407 7.74965 13.1817C6.12789 11.5229 4.87279 9.50563 4.5529 7.86443C4.39294 7.0439 4.46357 6.33729 4.7666 5.77711C5.02745 5.29469 5.47063 4.88177 6.21302 4.5855L6.21284 4.58561Z" fill="#1B1B1B"/>
</svg>
