<svg width="19" height="11" viewBox="0 0 19 11" fill="none" xmlns="http://www.w3.org/2000/svg">
<path d="M18.624 2.17972L10.2018 10.7212C10.1016 10.8226 9.99296 10.8942 9.87599 10.9361C9.75902 10.9787 9.63369 11 9.5 11C9.36631 11 9.24098 10.9787 9.12401 10.9361C9.00704 10.8942 8.89842 10.8226 8.79815 10.7212L0.350923 2.17972C0.116974 1.94316 1.11528e-07 1.64746 1.15759e-07 1.29263C1.19991e-07 0.937788 0.12533 0.63364 0.37599 0.380184C0.626649 0.126728 0.919085 1.096e-08 1.2533 1.49454e-08C1.58751 1.89309e-08 1.87995 0.126728 2.13061 0.380184L9.5 7.8318L16.8694 0.380184C17.1033 0.143625 17.3914 0.0253451 17.7337 0.0253451C18.0766 0.0253451 18.3734 0.152073 18.624 0.40553C18.8747 0.658986 19 0.954685 19 1.29263C19 1.63057 18.8747 1.92627 18.624 2.17972Z" fill="#1B1B1B"/>
</svg>
