<svg width="14" height="21" viewBox="0 0 14 21" fill="none" xmlns="http://www.w3.org/2000/svg">
<path d="M2.17902 0.613004L3.68641 0.102108C4.18389 -0.066237 4.71887 -0.0253915 5.19154 0.217025C5.66421 0.459442 6.04229 0.886874 6.25526 1.41959L7.31206 4.06155C7.49548 4.51989 7.54661 5.03129 7.45826 5.52397C7.36991 6.01664 7.14652 6.46583 6.81946 6.80849L5.21091 8.49339C4.99535 8.72347 5.15877 9.62016 5.94631 11.1546C6.73464 12.6899 7.34397 13.297 7.6249 13.2026L9.73228 12.4782C10.1594 12.3313 10.6168 12.3384 11.0402 12.4984C11.4636 12.6584 11.8319 12.9634 12.0934 13.3705L13.5953 15.7107C13.8987 16.1832 14.0391 16.7635 13.9906 17.3437C13.9421 17.9239 13.7079 18.4646 13.3315 18.8653L12.1704 20.1014C11.7956 20.5004 11.3333 20.7805 10.8308 20.9132C10.3282 21.0458 9.80333 21.0262 9.30972 20.8564C6.87705 20.0192 4.62414 17.5347 2.52066 13.4379C0.412498 9.33497 -0.383605 5.87418 0.171255 3.04676C0.283165 2.47703 0.52821 1.95117 0.88113 1.52337C1.23405 1.09557 1.68208 0.781315 2.17902 0.613004Z" fill="white"/>
</svg>
