<svg width="19" height="15" viewBox="0 0 19 15" fill="none" xmlns="http://www.w3.org/2000/svg">
<path d="M1.9 15C1.3775 15 0.930367 14.8166 0.5586 14.4497C0.1862 14.0822 0 13.6406 0 13.125V1.875C0 1.35938 0.1862 0.918125 0.5586 0.55125C0.930367 0.18375 1.3775 0 1.9 0H17.1C17.6225 0 18.07 0.18375 18.4424 0.55125C18.8141 0.918125 19 1.35938 19 1.875V13.125C19 13.6406 18.8141 14.0822 18.4424 14.4497C18.07 14.8166 17.6225 15 17.1 15H1.9ZM9.5 8.27344C9.57917 8.27344 9.66213 8.26156 9.7489 8.23781C9.8363 8.21469 9.91958 8.17969 9.99875 8.13281L16.72 3.98438C16.8467 3.90625 16.9417 3.80875 17.005 3.69188C17.0683 3.57438 17.1 3.44531 17.1 3.30469C17.1 2.99219 16.9654 2.75781 16.6963 2.60156C16.4271 2.44531 16.15 2.45313 15.865 2.625L9.5 6.5625L3.135 2.625C2.85 2.45313 2.57292 2.44906 2.30375 2.61281C2.03458 2.77719 1.9 3.00781 1.9 3.30469C1.9 3.46094 1.93167 3.5975 1.995 3.71438C2.05833 3.83187 2.15333 3.92188 2.28 3.98438L9.00125 8.13281C9.08042 8.17969 9.1637 8.21469 9.2511 8.23781C9.33787 8.26156 9.42083 8.27344 9.5 8.27344Z" fill="white"/>
</svg>
