<svg width="34" height="29" viewBox="0 0 34 29" fill="none" xmlns="http://www.w3.org/2000/svg">
<path d="M18.4442 0.663905L10.0134 8.95229C9.45037 9.50584 9.13079 10.2689 9.13079 11.0618V26.0078C9.13079 27.6535 10.5004 29 12.1744 29H25.8706C27.088 29 28.1837 28.2819 28.6707 27.1897L33.6318 15.8044C34.9101 12.8421 32.7035 9.55073 29.4316 9.55073H20.8334L22.2791 2.6986C22.4313 1.95055 22.203 1.18754 21.6552 0.648944C20.7573 -0.218792 19.3268 -0.218792 18.4442 0.663905ZM3.0436 29C4.71758 29 6.0872 27.6535 6.0872 26.0078V14.039C6.0872 12.3933 4.71758 11.0468 3.0436 11.0468C1.36962 11.0468 0 12.3933 0 14.039V26.0078C0 27.6535 1.36962 29 3.0436 29Z" fill="#DFB300"/>
</svg>
