<svg width="31" height="17" viewBox="0 0 31 17" fill="none" xmlns="http://www.w3.org/2000/svg">
<path d="M29.8787 15.3529C29.8424 15.2751 29.8085 15.2106 29.7771 15.1589C29.2566 14.2279 28.2619 13.0851 26.7937 11.7302L26.7627 11.6991L26.7472 11.6839L26.7315 11.6683H26.7157C26.0493 11.0374 25.6274 10.6132 25.4507 10.396C25.1273 9.98232 25.0549 9.56354 25.2316 9.13923C25.3565 8.81864 25.8254 8.1416 26.6374 7.10719C27.0645 6.55898 27.4028 6.11962 27.6526 5.7886C29.4542 3.40973 30.2353 1.8896 29.9956 1.22761L29.9026 1.07292C29.8401 0.979782 29.6787 0.894582 29.4186 0.81688C29.158 0.739341 28.8249 0.726518 28.4187 0.778193L23.9203 0.809056C23.8474 0.783409 23.7434 0.785799 23.6078 0.81688C23.4724 0.847961 23.4047 0.863556 23.4047 0.863556L23.3264 0.902407L23.2642 0.949082C23.2122 0.979945 23.1549 1.03423 23.0923 1.11182C23.0301 1.18914 22.9781 1.27988 22.9365 1.38329C22.4468 2.63472 21.89 3.79824 21.265 4.87378C20.8797 5.51512 20.5259 6.07093 20.2027 6.54154C19.88 7.01199 19.6092 7.35861 19.3907 7.58079C19.1719 7.80319 18.9744 7.98136 18.797 8.11595C18.6199 8.2506 18.4847 8.30749 18.3911 8.28668C18.2973 8.26587 18.2089 8.24522 18.1253 8.22457C17.9796 8.13144 17.8624 8.00478 17.7741 7.84449C17.6853 7.68419 17.6256 7.48244 17.5943 7.23939C17.5633 6.99618 17.5449 6.78698 17.5396 6.61109C17.5348 6.43542 17.537 6.18694 17.5476 5.86635C17.5584 5.5456 17.5633 5.32858 17.5633 5.2148C17.5633 4.82173 17.571 4.39513 17.5865 3.93489C17.6022 3.47466 17.615 3.11 17.6256 2.84136C17.6363 2.57245 17.6412 2.28794 17.6412 1.988C17.6412 1.68806 17.6228 1.45284 17.5865 1.28211C17.5506 1.1116 17.4955 0.946093 17.4229 0.785637C17.3499 0.625343 17.243 0.501346 17.1027 0.41332C16.9621 0.325403 16.7874 0.255635 16.5794 0.203797C16.0275 0.0797461 15.3246 0.0126401 14.4706 0.00220737C12.5338 -0.0184406 11.2894 0.105773 10.7375 0.374686C10.5188 0.488305 10.3209 0.643545 10.144 0.839919C9.95652 1.06754 9.93037 1.19175 10.0657 1.21218C10.6906 1.30515 11.133 1.52755 11.3933 1.87917L11.4872 2.06549C11.5601 2.19992 11.633 2.43791 11.7059 2.77915C11.7788 3.12038 11.8258 3.49786 11.8464 3.91137C11.8984 4.66649 11.8984 5.31288 11.8464 5.8506C11.7943 6.38853 11.7451 6.8073 11.6981 7.10724C11.6511 7.40718 11.5808 7.65023 11.4872 7.83634C11.3933 8.02249 11.3309 8.13628 11.2996 8.17757C11.2684 8.21887 11.2423 8.24489 11.2217 8.25511C11.0863 8.30662 10.9455 8.33287 10.7999 8.33287C10.6539 8.33287 10.477 8.26038 10.2688 8.11552C10.0606 7.97066 9.84459 7.77168 9.62067 7.51825C9.39674 7.26477 9.14421 6.91054 8.86295 6.45553C8.58191 6.00051 8.29032 5.46274 7.98832 4.84221L7.73847 4.39219C7.58228 4.10269 7.36891 3.68114 7.09816 3.12794C6.82724 2.57452 6.58778 2.03919 6.37962 1.52206C6.2964 1.30488 6.17139 1.13953 6.00481 1.02575L5.92663 0.979076C5.87465 0.93778 5.79122 0.89393 5.67677 0.8472C5.56216 0.800525 5.44256 0.767053 5.3175 0.746459L1.0377 0.777323C0.600356 0.777323 0.303616 0.875727 0.147369 1.07226L0.0848365 1.16523C0.0535979 1.21702 0.0378418 1.29972 0.0378418 1.41355C0.0378418 1.52734 0.0690804 1.66698 0.131612 1.83233C0.756385 3.29073 1.43581 4.69724 2.16989 6.05208C2.90397 7.40691 3.54188 8.49827 4.08322 9.32517C4.62467 10.1527 5.17657 10.9336 5.73892 11.6677C6.30127 12.4021 6.67351 12.8727 6.85564 13.0795C7.03798 13.2866 7.18121 13.4415 7.28532 13.5449L7.67588 13.9171C7.92579 14.1654 8.29278 14.4627 8.777 14.8091C9.26134 15.1557 9.79754 15.497 10.3859 15.8334C10.9743 16.1692 11.6589 16.4433 12.44 16.6553C13.2209 16.8675 13.9811 16.9526 14.7204 16.9115H16.5167C16.8811 16.8803 17.1571 16.7665 17.3447 16.5701L17.4068 16.4924C17.4486 16.4306 17.4877 16.3347 17.5238 16.2057C17.5604 16.0764 17.5785 15.934 17.5785 15.7791C17.5679 15.3344 17.6019 14.9337 17.6799 14.5769C17.7577 14.2203 17.8464 13.9514 17.9457 13.7703C18.0449 13.5893 18.1568 13.4366 18.2814 13.3128C18.4062 13.1888 18.4952 13.1136 18.5474 13.0878C18.5992 13.0618 18.6406 13.0441 18.6719 13.0335C18.9218 12.9508 19.2159 13.0309 19.5547 13.2742C19.8931 13.5172 20.2106 13.8173 20.5076 14.174C20.8044 14.531 21.161 14.9315 21.5774 15.3761C21.9941 15.8209 22.3585 16.1516 22.6708 16.3691L22.983 16.5552C23.1916 16.6794 23.4623 16.7932 23.7956 16.8966C24.1283 17 24.4198 17.0258 24.6701 16.9742L28.6686 16.9122C29.0641 16.9122 29.3718 16.8472 29.5901 16.7181C29.8088 16.5889 29.9388 16.4465 29.9807 16.2915C30.0225 16.1365 30.0247 15.9605 29.9886 15.7638C29.9516 15.5676 29.9151 15.4304 29.8787 15.3529Z" fill="#1B1B1B"/>
</svg>
